@startuml

'-----------------------------------
' UML concepts illustrated
' JMB 2014
'-----------------------------------

' Default settings
'-----------------------------------
' left to right direction 'does not work for sequence diagrams :-(
hide circle
hide empty members
hide methods	

' Colors & Fonts
'-----------------------------------
'Colors => see http://plantuml.com/color
'skinparam monochrome true
'skinparam monochrome reverse
'skinparam handwritten true
skinparam package {
	BackgroundColor empty
	BorderColor DarkSlateGray
	ArrowColor Black
	FontColor Black
	FontSize 12
	FontName TrebuchetMS
}
skinparam roundcorner 10

skinparam class {
	BackgroundColor AliceBlue
	BorderColor DarkSlateGray
	ArrowColor Black
	FontColor Black
	FontSize 12
	FontName TrebuchetMS
}
skinparam arrow {
    MessageAlign center
}

' PlantUML stdlib now includes Icon-Font Sprites! See https://github.com/tupadr3/plantuml-icon-font-sprites
' see also https://tupadr3.de/plantuml-icon-font-sprites/
!define ICONURL https://raw.githubusercontent.com/tupadr3/plantuml-icon-font-sprites/v1.0.0

'!include ../Defs.txt

!includeurl ICONURL/common.puml
!includeurl ICONURL/font-awesome/server.puml
!includeurl ICONURL/font-awesome/database.puml

'title Styling example

' Attribute and name values (for translation purpose).
'-----------------------------------
!define RECT "Rectangle"
!define SQUARE "Carré"
'!define RECT "Rectangle"
'!define SQUARE "Square"

' Usefull functions
'-----------------------------------
!define objet(nom,type) class "<u>nom : type"


class r as "Ressource"
class s as "Savoir De Références"
class a as "Apprentissage Critique"
class p as "Parcours"
class c as "Compétence essentielle"
class m as "Métier accessible"
class n as "Niveau"

c *-> "3" n
n *--> "*" a

p -> "*" c
p --> "*" m : Donne accès à
r --> "*" s

c "1..*" -- "1..*" r

@enduml
